<svg width="23" height="20" viewBox="0 0 23 20" fill="none" xmlns="http://www.w3.org/2000/svg">
<path d="M21.337 1.22543C21.0641 1.00831 20.7348 0.866005 20.3841 0.813672C20.0334 0.761339 19.6745 0.800933 19.3454 0.928241L2.17124 7.56065C1.80396 7.70519 1.49132 7.95315 1.27481 8.27163C1.05831 8.5901 0.948181 8.96403 0.959046 9.34377C0.969911 9.72351 1.10126 10.0911 1.33565 10.3978C1.57004 10.7045 1.89639 10.9357 2.27138 11.0608L5.74534 12.2165L7.68165 18.3413C7.70797 18.4231 7.74615 18.501 7.7951 18.5727C7.80253 18.5837 7.813 18.5919 7.8209 18.6026C7.87745 18.678 7.94578 18.7447 8.02352 18.8003C8.04563 18.8165 8.0668 18.8316 8.09043 18.8459C8.18141 18.9036 8.28216 18.9458 8.38821 18.9706L8.39956 18.9716L8.40599 18.9742C8.46975 18.9866 8.53465 18.9929 8.59972 18.993C8.60598 18.993 8.61153 18.9901 8.61773 18.99C8.71593 18.9884 8.81326 18.9722 8.90628 18.9421C8.92792 18.935 8.94646 18.9232 8.96746 18.9147C9.03682 18.8872 9.10254 18.852 9.16324 18.8097C9.21185 18.7705 9.26047 18.7314 9.30911 18.6922L11.8987 15.9574L15.761 18.8193C16.1011 19.0725 16.5196 19.2102 16.9505 19.2105C17.4021 19.21 17.8397 19.0609 18.19 18.7884C18.5403 18.5159 18.7821 18.1365 18.8747 17.7138L22.0014 3.03192C22.0723 2.70148 22.0479 2.35883 21.9308 2.04062C21.8138 1.72242 21.6085 1.44064 21.337 1.22543ZM8.97972 12.5083C8.84684 12.6349 8.756 12.7962 8.71861 12.972L8.42199 14.3507L7.6706 11.9737L11.5665 10.0332L8.97972 12.5083ZM16.9356 17.37L12.3713 13.988C12.1804 13.8469 11.9408 13.7797 11.7004 13.8C11.46 13.8202 11.2364 13.9264 11.0742 14.0972L10.2448 14.9728L10.5379 13.6103L17.3258 7.1175C17.4878 6.96273 17.5865 6.75758 17.6041 6.5392C17.6216 6.32082 17.5568 6.10365 17.4214 5.92704C17.2859 5.75043 17.0889 5.62605 16.8658 5.57643C16.6428 5.52682 16.4086 5.55524 16.2056 5.65656L6.46385 10.5081L2.89467 9.25881L20.1241 2.66576L16.9356 17.37Z" fill="white"/>
</svg>
