<svg width="20" height="20" viewBox="0 0 20 20" fill="none" xmlns="http://www.w3.org/2000/svg">
<path d="M5.67901 0.740741C5.67901 0.331644 5.34736 0 4.93827 0C4.52917 0 4.19753 0.331644 4.19753 0.740741V2.3005C2.77597 2.41433 1.84273 2.6937 1.1571 3.37933C0.471473 4.06496 0.192105 4.99819 0.0782776 6.41975H19.6748C19.561 4.99819 19.2816 4.06496 18.5959 3.37933C17.9103 2.6937 16.9771 2.41433 15.5556 2.3005V0.740741C15.5556 0.331644 15.2239 0 14.8148 0C14.4057 0 14.0741 0.331644 14.0741 0.740741V2.23496C13.417 2.22222 12.6805 2.22222 11.8518 2.22222H7.90123C7.07256 2.22222 6.33606 2.22222 5.67901 2.23496V0.740741Z" fill="#4DACB8"/>
<path fill-rule="evenodd" clip-rule="evenodd" d="M0 10.1235C0 9.29482 1.12219e-07 8.55832 0.0127409 7.90124H19.7403C19.7531 8.55832 19.7531 9.29482 19.7531 10.1235V12.0988C19.7531 15.8234 19.7531 17.6858 18.596 18.8429C17.4389 20 15.5765 20 11.8519 20H7.90123C4.17655 20 2.31422 20 1.15711 18.8429C1.17738e-07 17.6858 0 15.8234 0 12.0988V10.1235ZM14.8148 12.0988C15.3603 12.0988 15.8025 11.6566 15.8025 11.1111C15.8025 10.5656 15.3603 10.1235 14.8148 10.1235C14.2693 10.1235 13.8272 10.5656 13.8272 11.1111C13.8272 11.6566 14.2693 12.0988 14.8148 12.0988ZM14.8148 16.0494C15.3603 16.0494 15.8025 15.6072 15.8025 15.0617C15.8025 14.5163 15.3603 14.0741 14.8148 14.0741C14.2693 14.0741 13.8272 14.5163 13.8272 15.0617C13.8272 15.6072 14.2693 16.0494 14.8148 16.0494ZM10.8642 11.1111C10.8642 11.6566 10.422 12.0988 9.87654 12.0988C9.33106 12.0988 8.88889 11.6566 8.88889 11.1111C8.88889 10.5656 9.33106 10.1235 9.87654 10.1235C10.422 10.1235 10.8642 10.5656 10.8642 11.1111ZM10.8642 15.0617C10.8642 15.6072 10.422 16.0494 9.87654 16.0494C9.33106 16.0494 8.88889 15.6072 8.88889 15.0617C8.88889 14.5163 9.33106 14.0741 9.87654 14.0741C10.422 14.0741 10.8642 14.5163 10.8642 15.0617ZM4.93827 12.0988C5.48373 12.0988 5.92593 11.6566 5.92593 11.1111C5.92593 10.5656 5.48373 10.1235 4.93827 10.1235C4.39281 10.1235 3.95062 10.5656 3.95062 11.1111C3.95062 11.6566 4.39281 12.0988 4.93827 12.0988ZM4.93827 16.0494C5.48373 16.0494 5.92593 15.6072 5.92593 15.0617C5.92593 14.5163 5.48373 14.0741 4.93827 14.0741C4.39281 14.0741 3.95062 14.5163 3.95062 15.0617C3.95062 15.6072 4.39281 16.0494 4.93827 16.0494Z" fill="#4DACB8"/>
</svg>
