<svg width="21" height="21" viewBox="0 0 21 21" fill="none" xmlns="http://www.w3.org/2000/svg">
<path fill-rule="evenodd" clip-rule="evenodd" d="M14.5714 1H6.42857C3.43045 1 1 3.43045 1 6.42857V14.5714C1 17.5695 3.43045 20 6.42857 20H14.5714C17.5695 20 20 17.5695 20 14.5714V6.42857C20 3.43045 17.5695 1 14.5714 1Z" stroke="white" stroke-width="2" stroke-linecap="round" stroke-linejoin="round"/>
<path fill-rule="evenodd" clip-rule="evenodd" d="M10.5 14.5714C8.25137 14.5714 6.42859 12.7486 6.42859 10.5C6.42859 8.25134 8.25137 6.42856 10.5 6.42856C12.7487 6.42856 14.5714 8.25134 14.5714 10.5C14.5714 11.5797 14.1425 12.6154 13.3789 13.3789C12.6154 14.1424 11.5798 14.5714 10.5 14.5714Z" stroke="white" stroke-width="2" stroke-linecap="round" stroke-linejoin="round"/>
<path d="M15.9286 3.71427C15.1791 3.71427 14.5715 4.32189 14.5715 5.07142C14.5715 5.82094 15.1791 6.42856 15.9286 6.42856C16.6781 6.42856 17.2858 5.82094 17.2858 5.07142C17.2858 4.32189 16.6781 3.71427 15.9286 3.71427Z" fill="white"/>
<path d="M15.9286 4.39283C15.5538 4.39283 15.25 4.69663 15.25 5.0714C15.25 5.44616 15.5538 5.74997 15.9286 5.74997C16.3033 5.74997 16.6071 5.44616 16.6071 5.0714C16.6071 4.69663 16.3033 4.39283 15.9286 4.39283Z" stroke="white" stroke-width="2" stroke-linecap="round"/>
</svg>
