<svg width="26" height="26" viewBox="0 0 26 26" fill="none" xmlns="http://www.w3.org/2000/svg">
<path d="M17.9359 13.9817L17.4425 14.4722C17.4425 14.4722 16.2696 15.6384 13.0684 12.4553C9.86717 9.27225 11.04 8.1061 11.04 8.1061L11.3507 7.79715C12.1161 7.03606 12.1883 5.81414 11.5204 4.92209L10.1544 3.09732C9.32784 1.99323 7.73066 1.84738 6.78328 2.78939L5.08288 4.48013C4.61312 4.94722 4.29833 5.55271 4.3365 6.2244C4.43417 7.94279 5.21164 11.6401 9.55001 15.9538C14.1506 20.5283 18.4674 20.7101 20.2327 20.5455C20.791 20.4935 21.2766 20.2091 21.6679 19.82L23.2069 18.2899C24.2457 17.2569 23.9528 15.4861 22.6236 14.7636L20.5539 13.6385C19.6812 13.1641 18.618 13.3034 17.9359 13.9817Z" fill="#4DACB8"/>
</svg>
