<svg width="22" height="22" viewBox="0 0 22 22" fill="none" xmlns="http://www.w3.org/2000/svg">
<g clip-path="url(#clip0_156_151)">
<path d="M5.19743 18.6735L8.91959 14.16L10.6222 16.3317L7.34049 20.5051C6.08366 22.1021 3.75797 20.4191 5.19743 18.6735ZM9.54443 8.39504C9.89892 7.23847 9.736 6.25019 8.40397 4.78209L5.14909 0.866559C4.68717 0.324078 3.59863 1.12079 4.05338 1.77785L6.65657 4.9844C7.14892 5.58238 6.23405 6.37372 5.72558 5.75783L3.03287 2.44208C2.53157 1.86737 1.49495 2.62649 2.01953 3.28355C2.77864 4.19664 3.95312 5.68801 4.71224 6.6011C5.2386 7.13642 4.43831 7.92955 3.9191 7.26174L1.24609 3.96747C0.854001 3.54136 0.21305 3.80634 0.0429655 4.30406C-0.139652 4.8358 0.30973 5.22431 0.615882 5.61819L3.59863 9.47105C4.52425 10.5435 5.55908 11.1791 6.7622 10.8192C6.94661 10.7637 7.1722 10.6509 7.4139 10.5023L15.4276 20.847C15.859 21.4038 16.6916 21.4629 17.2323 21.0135L17.3558 20.9115C17.9645 20.4048 18.063 19.4792 17.542 18.8812L9.05566 9.13088C9.30273 8.85517 9.48356 8.59377 9.54443 8.39504ZM11.8128 10.6509L13.1323 9.05031C11.4351 4.84296 17.7246 -0.764463 20.7736 1.81366C24.4779 4.94859 18.9725 12.5039 15.1035 10.6366L13.5405 12.6221L11.8128 10.6509Z" fill="#4DACB8"/>
</g>
<defs>
<clipPath id="clip0_156_151">
<rect width="22" height="22" fill="white"/>
</clipPath>
</defs>
</svg>
