<svg width="22" height="22" viewBox="0 0 22 22" fill="none" xmlns="http://www.w3.org/2000/svg">
<path d="M2.91897 7.7829C5.23161 6.01187 8.07028 5.04419 11.0001 5.04419C13.9299 5.04419 16.7685 6.01187 19.0812 7.7829C19.4831 8.09071 20.0606 8.05702 20.3954 7.67725L21.0015 6.98959C21.3362 6.60982 21.3012 6.02823 20.9029 5.71569C18.0851 3.50442 14.5996 2.29419 11.0001 2.29419C7.40058 2.29419 3.91506 3.50442 1.09718 5.71569C0.698905 6.02823 0.663899 6.60982 0.998663 6.98959L1.60481 7.67725C1.93958 8.05702 2.51703 8.09071 2.91897 7.7829Z" fill="#4DACB8"/>
<path d="M6.19737 11.0955C7.62401 10.1418 9.30719 9.62697 11.0368 9.62697C12.7664 9.62697 14.4496 10.1418 15.8762 11.0955C16.2971 11.3768 16.8728 11.3287 17.1968 10.9396L17.7834 10.2354C18.1075 9.84633 18.0567 9.26498 17.6431 8.97306C15.7163 7.61346 13.4098 6.87695 11.0368 6.87695C8.6638 6.87695 6.35727 7.61346 4.43054 8.97306C4.01691 9.26498 3.96612 9.84633 4.29013 10.2354L4.8768 10.9396C5.2008 11.3287 5.7765 11.3768 6.19737 11.0955Z" fill="#4DACB8"/>
<path d="M11.0047 14.2095C10.4561 14.2095 9.91622 14.3188 9.41554 14.5279C8.94833 14.7229 8.37792 14.6372 8.08471 14.2245L7.55381 13.4772C7.2606 13.0645 7.3553 12.486 7.80332 12.2504C8.78645 11.733 9.88469 11.4595 11.0047 11.4595C12.1247 11.4595 13.2229 11.733 14.206 12.2504C14.654 12.486 14.7488 13.0645 14.4556 13.4772L13.9246 14.2245C13.6315 14.6372 13.061 14.7229 12.5938 14.5279C12.0931 14.3188 11.5533 14.2095 11.0047 14.2095Z" fill="#4DACB8"/>
<path d="M11.0001 19.7084C12.0126 19.7084 12.8334 18.8876 12.8334 17.8751C12.8334 16.8625 12.0126 16.0417 11.0001 16.0417C9.98754 16.0417 9.16676 16.8625 9.16676 17.8751C9.16676 18.8876 9.98754 19.7084 11.0001 19.7084Z" fill="#4DACB8"/>
</svg>
