<svg width="22" height="22" viewBox="0 0 22 22" fill="none" xmlns="http://www.w3.org/2000/svg">
<path d="M11 18.5652C10.4159 18.5652 9.83984 18.4672 9.29199 18.2859V22H12.708V18.2859C12.1602 18.4672 11.5841 18.5652 11 18.5652Z" fill="#4DACB8"/>
<path d="M18.0375 8.52663C18.1925 8.10838 18.2819 7.65785 18.2819 7.18519C18.2819 5.37109 17.0297 3.85241 15.3426 3.4375C14.8772 1.46764 13.1122 0 11 0C8.88783 0 7.12276 1.46764 6.65745 3.4375C4.97093 3.85241 3.71813 5.37109 3.71813 7.18519C3.71813 7.65785 3.80678 8.10769 3.96185 8.52663C2.8561 9.339 2.13568 10.6456 2.13568 12.1239C2.13568 14.5906 4.13442 16.59 6.60177 16.59C7.22683 16.59 7.82169 16.4611 8.36147 16.2288C8.90863 16.6934 9.57937 17.0143 10.3165 17.1392V14.9921L7.22146 11.8957C6.95424 11.6291 6.95424 11.1968 7.22146 10.9302C7.488 10.663 7.92039 10.663 8.18693 10.9302L10.3166 13.0592V10.714L8.19367 8.59113C7.99563 8.3924 7.99563 8.07147 8.19367 7.87342C8.39172 7.67538 8.71334 7.67538 8.91074 7.87342L10.3166 9.27863V6.70386C10.3166 6.32655 10.6228 6.02104 11.0001 6.02104C11.3774 6.02104 11.6836 6.3265 11.6836 6.70386V9.27863L13.0894 7.87342C13.2868 7.67538 13.6084 7.67538 13.8065 7.87342C14.0046 8.07147 14.0046 8.3924 13.8065 8.59113L11.6836 10.714V13.0592L13.8133 10.9302C14.0798 10.663 14.5122 10.663 14.7787 10.9302C15.0459 11.1968 15.0459 11.6291 14.7787 11.8957L11.6836 14.9921V17.1392C12.4208 17.0144 13.0916 16.6934 13.6387 16.2295C14.1785 16.4612 14.7727 16.5901 15.3978 16.5901C17.8651 16.5901 19.8645 14.5907 19.8645 12.124C19.8643 10.6455 19.1439 9.339 18.0375 8.52663Z" fill="#4DACB8"/>
</svg>
